<mxfile host="Electron" modified="2024-01-17T18:17:51.431Z" agent="Mozilla/5.0 (Windows NT 10.0; Win64; x64) AppleWebKit/537.36 (KHTML, like Gecko) draw.io/22.1.18 Chrome/120.0.6099.199 Electron/28.1.2 Safari/537.36" etag="xsXeE33SdfEvyV5g_KG7" version="22.1.18" type="device">
  <diagram name="Страница — 1" id="8HGXt5l2cGJQf3qKOS55">
    <mxGraphModel dx="1816" dy="1751" grid="1" gridSize="10" guides="1" tooltips="1" connect="1" arrows="1" fold="1" page="1" pageScale="1" pageWidth="827" pageHeight="1169" math="0" shadow="0">
      <root>
        <mxCell id="0" />
        <mxCell id="1" parent="0" />
        <mxCell id="R9Uka2OODDwX1OFTN_Q8-2" style="edgeStyle=orthogonalEdgeStyle;rounded=0;orthogonalLoop=1;jettySize=auto;html=1;exitX=0.5;exitY=1;exitDx=0;exitDy=0;" parent="1" edge="1">
          <mxGeometry relative="1" as="geometry">
            <mxPoint x="480.0000000000002" y="160.0000000000001" as="sourcePoint" />
            <mxPoint x="480.0000000000002" y="160.0000000000001" as="targetPoint" />
          </mxGeometry>
        </mxCell>
        <mxCell id="pQWlMYPe_QYnB47tdqeT-1" value="&lt;font style=&quot;font-size: 14px;&quot;&gt;&lt;b&gt;ProfileHandler&lt;/b&gt;&lt;/font&gt;" style="swimlane;fontStyle=0;childLayout=stackLayout;horizontal=1;startSize=30;horizontalStack=0;resizeParent=1;resizeParentMax=0;resizeLast=0;collapsible=1;marginBottom=0;whiteSpace=wrap;html=1;fillColor=#ffcc99;strokeColor=#36393d;strokeWidth=3;" vertex="1" parent="1">
          <mxGeometry x="320" y="170" width="240" height="170" as="geometry" />
        </mxCell>
        <mxCell id="pQWlMYPe_QYnB47tdqeT-2" value="Содержит доменную модель профиля: &lt;b&gt;&lt;i&gt;Profile.class&lt;/i&gt;&lt;/b&gt;" style="text;strokeColor=#36393d;fillColor=#f9f7ed;align=left;verticalAlign=middle;spacingLeft=4;spacingRight=4;overflow=hidden;points=[[0,0.5],[1,0.5]];portConstraint=eastwest;rotatable=0;whiteSpace=wrap;html=1;" vertex="1" parent="pQWlMYPe_QYnB47tdqeT-1">
          <mxGeometry y="30" width="240" height="60" as="geometry" />
        </mxCell>
        <mxCell id="pQWlMYPe_QYnB47tdqeT-3" value="&lt;b&gt;&lt;i&gt;interface ProfileService&lt;/i&gt;&lt;/b&gt; отвечает за создание/обновление/получение/удаление профиля пользователя" style="text;align=left;verticalAlign=middle;spacingLeft=4;spacingRight=4;overflow=hidden;points=[[0,0.5],[1,0.5]];portConstraint=eastwest;rotatable=0;whiteSpace=wrap;html=1;fillColor=#f9f7ed;strokeColor=#36393d;" vertex="1" parent="pQWlMYPe_QYnB47tdqeT-1">
          <mxGeometry y="90" width="240" height="80" as="geometry" />
        </mxCell>
        <mxCell id="pQWlMYPe_QYnB47tdqeT-5" value="&lt;font style=&quot;font-size: 14px;&quot;&gt;&lt;b&gt;FriendHandler&lt;/b&gt;&lt;/font&gt;" style="swimlane;fontStyle=0;childLayout=stackLayout;horizontal=1;startSize=30;horizontalStack=0;resizeParent=1;resizeParentMax=0;resizeLast=0;collapsible=1;marginBottom=0;whiteSpace=wrap;html=1;fillColor=#ffcc99;strokeColor=#36393d;strokeWidth=3;" vertex="1" parent="1">
          <mxGeometry x="320" y="-80" width="240" height="170" as="geometry" />
        </mxCell>
        <mxCell id="pQWlMYPe_QYnB47tdqeT-6" value="Работает с доменной моделью &lt;b&gt;&lt;i&gt;Profile.class&lt;/i&gt;&lt;/b&gt;" style="text;strokeColor=#36393d;fillColor=#f9f7ed;align=left;verticalAlign=middle;spacingLeft=4;spacingRight=4;overflow=hidden;points=[[0,0.5],[1,0.5]];portConstraint=eastwest;rotatable=0;whiteSpace=wrap;html=1;" vertex="1" parent="pQWlMYPe_QYnB47tdqeT-5">
          <mxGeometry y="30" width="240" height="60" as="geometry" />
        </mxCell>
        <mxCell id="pQWlMYPe_QYnB47tdqeT-7" value="&lt;b&gt;&lt;i&gt;interface FriendService&lt;/i&gt;&lt;/b&gt; отвечает за добавление/удаление друзей и получение их полного списка у конкретного пользователя" style="text;align=left;verticalAlign=middle;spacingLeft=4;spacingRight=4;overflow=hidden;points=[[0,0.5],[1,0.5]];portConstraint=eastwest;rotatable=0;whiteSpace=wrap;html=1;fillColor=#f9f7ed;strokeColor=#36393d;" vertex="1" parent="pQWlMYPe_QYnB47tdqeT-5">
          <mxGeometry y="90" width="240" height="80" as="geometry" />
        </mxCell>
        <mxCell id="pQWlMYPe_QYnB47tdqeT-8" value="" style="endArrow=classic;html=1;rounded=0;shape=flexArrow;strokeWidth=3;fillColor=#f9f7ed;strokeColor=#36393d;" edge="1" parent="1">
          <mxGeometry width="50" height="50" relative="1" as="geometry">
            <mxPoint x="440" y="100" as="sourcePoint" />
            <mxPoint x="440" y="160" as="targetPoint" />
          </mxGeometry>
        </mxCell>
        <mxCell id="pQWlMYPe_QYnB47tdqeT-9" value="&lt;font style=&quot;font-size: 14px;&quot;&gt;&lt;b&gt;DialogueHandler&lt;/b&gt;&lt;/font&gt;" style="swimlane;fontStyle=0;childLayout=stackLayout;horizontal=1;startSize=30;horizontalStack=0;resizeParent=1;resizeParentMax=0;resizeLast=0;collapsible=1;marginBottom=0;whiteSpace=wrap;html=1;fillColor=#ffcc99;strokeColor=#36393d;strokeWidth=3;" vertex="1" parent="1">
          <mxGeometry y="-80" width="240" height="170" as="geometry" />
        </mxCell>
        <mxCell id="pQWlMYPe_QYnB47tdqeT-10" value="Содержит доменные модели&amp;nbsp;&lt;i style=&quot;font-weight: bold;&quot;&gt;Dialogue.class &lt;/i&gt;и &lt;b&gt;&lt;i&gt;Message.class.&lt;br&gt;&lt;/i&gt;&lt;/b&gt;Работает с доменной моделью&lt;i style=&quot;font-weight: bold;&quot;&gt; Profile.class&amp;nbsp;&lt;/i&gt;" style="text;strokeColor=#36393d;fillColor=#f9f7ed;align=left;verticalAlign=middle;spacingLeft=4;spacingRight=4;overflow=hidden;points=[[0,0.5],[1,0.5]];portConstraint=eastwest;rotatable=0;whiteSpace=wrap;html=1;" vertex="1" parent="pQWlMYPe_QYnB47tdqeT-9">
          <mxGeometry y="30" width="240" height="60" as="geometry" />
        </mxCell>
        <mxCell id="pQWlMYPe_QYnB47tdqeT-11" value="&lt;b&gt;&lt;i&gt;interface DialogueService&lt;/i&gt;&lt;/b&gt; отвечает за создание/удаление диалогов между пользователями и позволяет осуществить получение всех диалогов для конкретного пользователя." style="text;align=left;verticalAlign=middle;spacingLeft=4;spacingRight=4;overflow=hidden;points=[[0,0.5],[1,0.5]];portConstraint=eastwest;rotatable=0;whiteSpace=wrap;html=1;fillColor=#f9f7ed;strokeColor=#36393d;" vertex="1" parent="pQWlMYPe_QYnB47tdqeT-9">
          <mxGeometry y="90" width="240" height="80" as="geometry" />
        </mxCell>
        <mxCell id="pQWlMYPe_QYnB47tdqeT-12" value="" style="endArrow=classic;html=1;rounded=0;shape=flexArrow;strokeWidth=3;fillColor=#f9f7ed;strokeColor=#36393d;" edge="1" parent="1">
          <mxGeometry width="50" height="50" relative="1" as="geometry">
            <mxPoint x="250" y="100" as="sourcePoint" />
            <mxPoint x="300" y="160" as="targetPoint" />
          </mxGeometry>
        </mxCell>
        <mxCell id="pQWlMYPe_QYnB47tdqeT-16" value="&lt;font style=&quot;font-size: 14px;&quot;&gt;&lt;b&gt;CommunityHandler&lt;/b&gt;&lt;/font&gt;" style="swimlane;fontStyle=0;childLayout=stackLayout;horizontal=1;startSize=30;horizontalStack=0;resizeParent=1;resizeParentMax=0;resizeLast=0;collapsible=1;marginBottom=0;whiteSpace=wrap;html=1;fillColor=#ffcc99;strokeColor=#36393d;strokeWidth=3;" vertex="1" parent="1">
          <mxGeometry x="640" y="-80" width="240" height="170" as="geometry" />
        </mxCell>
        <mxCell id="pQWlMYPe_QYnB47tdqeT-17" value="Содержит доменную модель сообщества: &lt;b&gt;&lt;i&gt;Community&lt;/i&gt;&lt;/b&gt;&lt;b style=&quot;border-color: var(--border-color);&quot;&gt;&lt;i style=&quot;border-color: var(--border-color);&quot;&gt;.class&lt;/i&gt;&lt;/b&gt;" style="text;strokeColor=#36393d;fillColor=#f9f7ed;align=left;verticalAlign=middle;spacingLeft=4;spacingRight=4;overflow=hidden;points=[[0,0.5],[1,0.5]];portConstraint=eastwest;rotatable=0;whiteSpace=wrap;html=1;" vertex="1" parent="pQWlMYPe_QYnB47tdqeT-16">
          <mxGeometry y="30" width="240" height="60" as="geometry" />
        </mxCell>
        <mxCell id="pQWlMYPe_QYnB47tdqeT-18" value="&lt;b&gt;&lt;i&gt;interface CommunityService&lt;/i&gt;&lt;/b&gt; отвечает за подписку/отписку пользователей, а также позволяет получить всех участников конкретного сообщества." style="text;align=left;verticalAlign=middle;spacingLeft=4;spacingRight=4;overflow=hidden;points=[[0,0.5],[1,0.5]];portConstraint=eastwest;rotatable=0;whiteSpace=wrap;html=1;fillColor=#f9f7ed;strokeColor=#36393d;" vertex="1" parent="pQWlMYPe_QYnB47tdqeT-16">
          <mxGeometry y="90" width="240" height="80" as="geometry" />
        </mxCell>
        <mxCell id="pQWlMYPe_QYnB47tdqeT-19" value="" style="endArrow=classic;html=1;rounded=0;shape=flexArrow;strokeWidth=3;fillColor=#f9f7ed;strokeColor=#36393d;" edge="1" parent="1">
          <mxGeometry width="50" height="50" relative="1" as="geometry">
            <mxPoint x="630" y="100" as="sourcePoint" />
            <mxPoint x="580" y="160" as="targetPoint" />
          </mxGeometry>
        </mxCell>
      </root>
    </mxGraphModel>
  </diagram>
</mxfile>
